<?xml version="1.0" standalone="no"?>
<!DOCTYPE svg PUBLIC "-//W3C//DTD SVG 20010904//EN"
 "http://www.w3.org/TR/2001/REC-SVG-20010904/DTD/svg10.dtd">
<svg version="1.0" xmlns="http://www.w3.org/2000/svg"
 width="8106.000000pt" height="3988.000000pt" viewBox="0 0 8106.000000 3988.000000"
 preserveAspectRatio="xMidYMid meet">
<metadata>
Created by potrace 1.16, written by Peter Selinger 2001-2019
</metadata>
<g transform="translate(0.000000,3988.000000) scale(0.100000,-0.100000)"
fill="#000000" stroke="none">
<path d="M61915 39754 c-758 -184 -1478 -362 -1850 -459 -798 -208 -1763 -478
-2180 -610 -93 -29 -348 -108 -565 -175 -491 -151 -1524 -494 -2013 -669
-3746 -1338 -6792 -2934 -9170 -4807 -850 -669 -1695 -1460 -2358 -2209 -669
-755 -1245 -1555 -1763 -2449 -947 -1633 -1497 -3281 -1650 -4941 -56 -602
-56 -1309 0 -1905 222 -2388 1254 -4769 3094 -7140 1044 -1346 2350 -2686
3953 -4057 449 -384 570 -494 872 -797 269 -270 443 -457 681 -734 1155 -1344
2295 -3154 3400 -5397 328 -666 737 -1545 974 -2092 l57 -131 3359 2725 3359
2725 325 -6 c179 -4 541 -11 805 -16 264 -5 1002 -12 1640 -16 959 -5 1170 -8
1219 -20 132 -32 394 -189 902 -541 1081 -750 1630 -1089 2379 -1469 1263
-640 2542 -1033 3835 -1178 886 -100 1892 -79 2630 55 1635 295 2374 1143
2159 2479 -82 513 -328 1117 -686 1681 l-78 124 22 210 c109 1008 160 1737
143 2021 -25 402 -175 910 -423 1437 l-56 117 705 0 705 0 49 25 c54 27 95 75
116 132 11 32 13 742 14 4154 l0 4116 53 42 c37 30 122 72 292 145 1199 513
1965 1009 2153 1392 24 49 25 56 13 106 -6 29 -32 100 -56 157 -39 92 -43 107
-30 120 8 9 487 399 1064 866 l1050 850 0 8126 1 8126 -5042 6 c-2773 4 -6965
7 -9317 6 l-4276 -1 -510 -124z m1236 -5474 c155 -12 326 -40 425 -71 307 -93
840 -480 1096 -794 199 -246 358 -565 426 -860 49 -210 66 -524 41 -753 -46
-427 -207 -812 -461 -1102 -147 -167 -297 -297 -533 -461 -497 -343 -629 -495
-775 -889 -99 -267 -139 -305 -335 -317 -127 -7 -633 43 -1265 128 -310 41
-338 46 -395 77 -92 50 -132 174 -105 326 28 159 197 703 287 921 71 175 121
263 193 338 110 117 192 174 461 317 211 112 310 179 404 274 98 98 134 167
165 315 33 152 20 247 -47 344 -58 83 -230 130 -345 92 -165 -53 -373 -255
-633 -615 -106 -148 -183 -233 -226 -250 -76 -32 -272 43 -460 176 -178 126
-518 414 -656 556 -122 126 -179 236 -167 322 22 157 174 460 347 691 402 539
1095 1029 1661 1175 107 27 281 55 391 63 117 8 381 6 506 -3z m11071 -4837
c46 -53 60 -197 33 -328 -16 -76 -76 -200 -160 -331 -77 -118 -75 -113 -100
-272 -93 -573 -333 -1018 -729 -1349 -50 -42 -94 -86 -97 -97 -3 -12 -9 -61
-13 -111 -4 -49 -8 -98 -9 -109 -2 -16 11 -21 85 -36 128 -26 265 -75 386
-136 127 -65 134 -71 96 -79 -107 -22 -162 -42 -216 -78 -199 -132 -292 -440
-260 -859 45 -583 287 -1242 600 -1629 154 -191 433 -419 823 -673 l136 -88 7
-142 c47 -995 56 -1588 32 -1949 -9 -131 -16 -366 -16 -522 l0 -284 -73 -50
c-66 -44 -301 -218 -337 -249 -8 -7 17 3 55 21 135 67 230 82 316 52 164 -58
244 -326 169 -568 -16 -52 -32 -79 -70 -119 l-50 -52 0 -91 c0 -87 -23 -446
-36 -570 l-6 -60 -97 -60 c-201 -125 -535 -310 -771 -429 -712 -356 -1260
-519 -1630 -485 -312 29 -712 193 -1035 424 -271 194 -582 495 -773 747 l-51
67 -15 -42 c-105 -294 -176 -660 -236 -1217 -35 -320 -63 -1315 -59 -2032 l4
-518 -4680 0 c-4676 0 -4680 0 -4713 20 -65 40 -62 -29 -62 1265 l0 1175
-4610 0 c-4007 0 -4615 2 -4639 14 -15 8 -37 28 -47 43 -19 27 -19 116 -22
3898 -2 2610 0 3882 7 3905 6 20 24 49 41 65 l31 30 6655 3 c6028 2 6658 1
6685 -14 18 -9 38 -32 50 -57 18 -40 19 -84 19 -1214 l0 -1173 1109 0 1108 0
7 -82 c26 -319 98 -861 152 -1148 90 -478 182 -785 313 -1048 65 -132 99 -181
180 -263 110 -109 228 -151 363 -129 137 23 271 116 359 250 21 30 52 66 70
80 56 40 307 250 424 355 218 193 407 374 817 782 l417 415 6 66 c36 376 180
1583 241 2017 141 1018 312 1473 687 1831 161 154 378 286 634 384 l112 44
-69 22 c-370 117 -687 634 -875 1429 -19 83 -39 164 -45 180 -13 43 -56 309
-74 460 -18 147 -39 446 -32 452 2 2 26 -3 52 -12 154 -52 419 -69 634 -41
270 36 584 126 771 222 110 56 277 42 490 -42 135 -53 343 -159 499 -255 208
-127 234 -139 300 -139 76 0 140 23 186 68 22 20 82 88 134 151 159 191 304
311 375 311 12 0 29 -8 37 -17z m-11993 -673 c288 -30 565 -164 717 -348 155
-188 220 -421 212 -751 -4 -165 -7 -182 -37 -271 -83 -247 -258 -429 -543
-565 -203 -96 -380 -128 -595 -107 -264 26 -462 118 -629 294 -191 202 -284
472 -284 828 0 203 31 296 154 464 158 217 336 347 576 420 142 43 261 53 429
36z m5016 -1080 c30 -58 67 -228 105 -485 21 -143 43 -271 49 -285 7 -18 9 63
8 270 -2 269 0 299 17 338 24 56 53 55 80 -3 50 -106 126 -678 126 -952 0 -56
4 -93 10 -93 6 0 68 54 139 120 244 229 334 281 409 241 90 -48 -117 -383
-443 -716 -112 -116 -155 -182 -155 -245 0 -35 -1 -34 -35 29 -44 82 -76 115
-143 148 -141 69 -367 20 -485 -105 l-45 -49 -5 266 c-4 215 -10 299 -30 441
-32 211 -51 437 -42 494 9 56 25 96 40 96 36 0 64 -69 126 -315 69 -270 74
-247 29 147 -28 249 -37 425 -24 476 4 12 14 22 24 22 23 0 58 -71 93 -190 26
-88 127 -465 127 -475 0 -3 5 -3 11 1 13 7 8 87 -22 394 -19 192 -25 440 -12
453 14 15 33 6 48 -23z m-20097 -8231 c283 -31 620 -136 785 -246 258 -171
565 -586 670 -905 59 -176 72 -267 72 -483 -1 -227 -14 -304 -85 -518 -77
-229 -181 -399 -350 -567 -172 -173 -334 -271 -644 -389 -376 -144 -504 -233
-655 -456 -124 -181 -151 -201 -265 -192 -98 7 -398 111 -919 317 -222 88
-267 115 -288 177 -31 94 0 173 180 472 216 359 323 487 461 553 73 35 117 49
383 122 244 68 341 132 418 278 42 79 44 87 44 169 0 78 -2 89 -28 122 -16 21
-52 49 -80 64 -145 76 -324 0 -656 -276 -73 -62 -151 -121 -172 -131 -41 -22
-84 -26 -94 -10 -3 6 -14 10 -24 10 -32 0 -135 84 -211 171 -153 177 -372 492
-415 597 -49 119 -30 192 84 333 170 211 409 397 691 539 395 198 775 285
1098 249z m27276 -1221 c3 -18 14 -105 25 -193 163 -1323 44 -3025 -324 -4651
-73 -324 -92 -525 -75 -812 29 -480 91 -700 404 -1429 179 -416 242 -581 301
-788 116 -405 166 -800 195 -1545 26 -653 22 -2234 -6 -2647 l-7 -93 -26 7
c-14 3 -28 7 -30 9 -2 1 2 177 9 391 7 213 13 708 12 1098 0 1439 -42 2088
-171 2620 -65 266 -138 466 -341 935 -332 766 -403 1045 -404 1595 -1 304 3
339 84 710 366 1679 477 3289 315 4589 -31 250 -32 236 4 236 25 0 30 -5 35
-32z m-28577 -2529 c215 -29 421 -141 543 -293 104 -132 146 -269 136 -451
-18 -362 -177 -587 -484 -686 -177 -56 -335 -61 -501 -13 -244 71 -412 228
-488 459 -24 72 -27 95 -27 230 0 131 3 164 27 259 35 138 65 193 147 268 152
140 295 209 473 228 39 4 77 8 84 9 6 0 47 -4 90 -10z m17017 -2625 c116 -29
203 -81 296 -174 144 -143 196 -279 188 -490 -6 -132 -27 -206 -88 -310 -212
-360 -727 -422 -1025 -125 -125 125 -187 278 -189 460 0 116 13 181 60 282 80
176 235 307 424 357 75 20 256 20 334 0z m7366 -1601 c0 -16 -7 -91 -15 -168
-17 -165 -54 -683 -98 -1385 l-33 -505 -124 3 c-191 4 -168 -30 -172 265 l-3
252 -31 55 c-33 60 -99 112 -162 130 -25 6 -624 10 -1779 10 l-1743 0 0 657 0
657 27 28 27 28 2053 0 2053 0 0 -27z m2775 -45 c15 -40 60 -154 100 -253 96
-237 127 -380 204 -925 59 -418 145 -1130 137 -1138 -3 -3 -95 7 -203 22 -242
33 -636 77 -960 107 -173 17 -243 27 -243 36 0 6 13 66 29 132 65 263 91 492
91 786 0 375 -56 787 -155 1148 -19 70 -32 134 -29 142 5 13 70 15 504 15
l498 0 27 -72z"/>
<path d="M77450 11330 c-138 -29 -333 -97 -460 -161 -301 -150 -571 -449 -765
-844 -114 -233 -163 -412 -171 -625 -6 -161 2 -184 84 -242 69 -47 254 -125
457 -193 195 -64 273 -80 361 -70 61 6 66 9 89 43 13 21 44 106 70 191 74 247
145 394 221 460 43 38 130 65 181 55 128 -23 202 -261 129 -419 -32 -71 -82
-139 -191 -260 -213 -236 -245 -318 -245 -625 0 -147 17 -439 30 -510 11 -61
48 -120 87 -141 44 -23 126 -14 393 46 555 123 680 159 740 213 37 33 42 44
50 102 5 36 10 108 10 160 1 209 47 320 254 618 117 167 188 291 232 409 176
467 17 1085 -367 1424 -160 140 -320 229 -548 303 -265 87 -454 106 -641 66z"/>
<path d="M78040 7900 c-166 -26 -321 -107 -420 -218 -64 -72 -133 -210 -162
-325 -21 -84 -21 -90 -5 -161 49 -227 195 -435 368 -521 132 -67 266 -81 417
-45 146 35 250 97 358 213 205 221 235 435 100 712 -84 171 -192 271 -347 320
-91 28 -221 39 -309 25z"/>
</g>
</svg>
